<?xml version="1.0" standalone="no"?><!DOCTYPE svg PUBLIC "-//W3C//DTD SVG 1.1//EN" "http://www.w3.org/Graphics/SVG/1.1/DTD/svg11.dtd"><svg t="1781879328448" class="icon" viewBox="0 0 1024 1024" version="1.1" xmlns="http://www.w3.org/2000/svg" p-id="1196" xmlns:xlink="http://www.w3.org/1999/xlink" width="200" height="200"><path d="M228.83 231m32.83 0l493.34 0q32.83 0 32.83 32.83l0 493.34q0 32.83-32.83 32.83l-493.34 0q-32.83 0-32.83-32.83l0-493.34q0-32.83 32.83-32.83Z" fill="#FFD400" p-id="1197"></path><path d="M508.335657 115.229652m23.214315 23.214316l348.84406 348.84406q23.214316 23.214316 0 46.428631l-348.84406 348.844059q-23.214316 23.214316-46.428631 0l-348.844059-348.844059q-23.214316-23.214316 0-46.428631l348.844059-348.84406q23.214316-23.214316 46.428631 0Z" fill="#FFD400" p-id="1198"></path><path d="M508.33 511m-226.67 0a226.67 226.67 0 1 0 453.34 0 226.67 226.67 0 1 0-453.34 0Z" fill="#F9A012" p-id="1199"></path></svg>