<?xml version="1.0" standalone="no"?><!DOCTYPE svg PUBLIC "-//W3C//DTD SVG 1.1//EN" "http://www.w3.org/Graphics/SVG/1.1/DTD/svg11.dtd"><svg t="1781879400492" class="icon" viewBox="0 0 1024 1024" version="1.1" xmlns="http://www.w3.org/2000/svg" p-id="1162" xmlns:xlink="http://www.w3.org/1999/xlink" width="200" height="200"><path d="M0 511.84a511.216 511.216 0 0 0 116.16 324.672 511.504 511.504 0 0 0 176.88 138 510.368 510.368 0 0 0 94.528 33.808 513.392 513.392 0 0 0 124.432 15.328 512.096 512.096 0 0 0 263.28-72.816A511.76 511.76 0 0 0 587.136 5.552a512.144 512.144 0 0 0-338.4 67.28A511.744 511.744 0 0 0 0 511.824z" fill="#FFC752" p-id="1163"></path><path d="M478.496 404h83.008v-26c0-15.6 10.192-26 25.488-26h306.016C921.056 352 944 375.392 944 404v31.2l-22.944 176c-2.56 26-25.504 46.8-51.008 46.8H632.896c-25.488 0-48.448-20.8-50.992-46.8l-17.856-181.2h-88.096L455.552 611.2c-2.56 26-25.504 46.8-51.008 46.8H169.952c-25.504 0-48.448-20.8-51.008-46.8L96 435.2v-31.2C96 375.392 118.944 352 147.008 352h305.984c15.312 0 25.504 10.4 25.504 26v26z" fill="#222222" p-id="1164"></path><path d="M294.896 401.008h5.104c10.192 0 20.4 7.792 20.4 20.8v5.2l-40.8 163.792c-2.56 10.4-12.752 20.8-25.504 20.8h-5.104a20.304 20.304 0 0 1-20.384-20.8V585.6l40.8-163.808c2.544-12.992 12.736-20.8 25.488-20.8z m465.504 0h5.104c10.192 0 20.4 7.792 20.4 20.8v5.2l-40.8 163.792c-2.56 10.4-12.752 20.8-25.504 20.8h-5.104a20.304 20.304 0 0 1-20.4-20.8V585.6l40.8-163.808c2.56-12.992 12.752-20.8 25.504-20.8z" fill="#FFFFFF" p-id="1165"></path><path d="M628.512 250.928l176-96a23.76 23.76 0 0 1 32.56 9.584 23.76 23.76 0 0 1-9.584 32.56l-176 96a23.76 23.76 0 0 1-32.56-9.584 23.76 23.76 0 0 1 9.584-32.56zM427.488 250.928l-176-96a23.76 23.76 0 0 0-32.56 9.584 23.76 23.76 0 0 0 9.584 32.56l176 96a23.76 23.76 0 0 0 32.56-9.584 23.76 23.76 0 0 0-9.584-32.56zM417.664 801.28c-4 3.328-7.2 6.112-9.584 8.32a23.76 23.76 0 0 0-1.184 33.92 23.76 23.76 0 0 0 33.92 1.2c1.744-1.6 4.256-3.808 7.568-6.56 6.816-5.68 13.936-11.136 21.376-16.368 10.32-7.264 20.48-13.552 30.448-18.848a177.696 177.696 0 0 1 34.24-14.24 159.616 159.616 0 0 1 34.976-5.6c10.432-0.592 21.28-0.384 32.56 0.64 8.096 0.72 15.952 1.808 23.584 3.264a131.2 131.2 0 0 1 8.32 1.792 23.776 23.776 0 0 0 29.312-17.104 23.76 23.76 0 0 0-17.088-29.312 176.736 176.736 0 0 0-11.584-2.528c-9.168-1.76-18.592-3.056-28.256-3.92a272.32 272.32 0 0 0-39.52-0.768c-16.256 0.896-31.44 3.36-45.504 7.392-13.968 4-28.48 9.984-43.552 17.984-11.744 6.24-23.616 13.584-35.584 22-8.48 5.984-16.64 12.224-24.448 18.72z" fill="#000000" p-id="1166"></path></svg>